Coordinates
version=1
nRows=24
nColumns=24
inDegrees=yes

Units are S.I. units (second, meters, Newtons, ...)
Angles are in degrees.

endheader
time	pelvis_tilt	pelvis_list	pelvis_rotation	pelvis_tx	pelvis_ty	pelvis_tz	hip_flexion_r	hip_adduction_r	hip_rotation_r	knee_angle_r	ankle_angle_r	subtalar_angle_r	mtp_angle_r	hip_flexion_l	hip_adduction_l	hip_rotation_l	knee_angle_l	ankle_angle_l	subtalar_angle_l	mtp_angle_l	lumbar_extension	lumbar_bending	lumbar_rotation
      3.17000000	     22.89604614	     -1.08957119	     -1.48759705	     -0.53151567	      0.94976687	     -0.00539724	    -44.11719749	      3.52110473	    -10.79304307	     -1.14986852	     12.80684634	     13.97758396	     21.16596492	     -4.83945921	      2.44126983	    -23.26884690	      4.52741789	      3.55340594	     23.36718150	     20.53370334	    -33.61441050	     -0.98061576	      1.82165606
      3.17500000	     22.96014041	     -1.00719414	     -1.74449176	     -0.52478800	      0.94926175	     -0.00527480	    -44.35777312	      3.19333451	    -10.51962991	     -1.64578886	     12.88048648	     13.86523638	     21.25304118	     -4.95839240	      2.59520793	    -23.15549919	      4.33938299	      3.15493755	     23.05119613	     20.51030707	    -33.62625638	     -1.22506592	      1.86770042
      3.18000000	     23.01762769	     -0.88935649	     -2.00960364	     -0.51802034	      0.94881515	     -0.00510420	    -44.56947401	      2.83343872	    -10.26667559	     -2.17720009	     12.92565679	     13.69421715	     21.38388699	     -5.05769176	      2.76949718	    -23.02413026	      4.02897340	      2.68817143	     22.56704653	     20.51026738	    -33.62520660	     -1.51912210	      1.93058531
      3.18500000	     23.03335244	     -0.81947355	     -2.19558695	     -0.51136565	      0.94837469	     -0.00505236	    -44.71844333	      2.56609715	     -9.93587293	     -2.69522322	     12.53908537	     13.33694362	     23.52360963	     -5.13404495	      2.88186909	    -22.57455159	      3.73943761	      1.81788754	     21.45154946	     22.33339720	    -33.59860973	     -1.72115105	      1.91329347
      3.19000000	     23.13191959	     -0.66751914	     -2.42375646	     -0.50461467	      0.94810181	     -0.00492099	    -44.92714192	      2.20119595	     -9.67189182	     -3.29651471	     12.52498780	     13.05883771	     23.69500769	     -5.27603285	      3.07091760	    -22.29870360	      3.28493302	      1.19596670	     20.62182120	     22.36251951	    -33.64600412	     -2.03546668	      1.88888410
      3.19500000	     23.08814405	     -0.54740115	     -2.61400052	     -0.49789340	      0.94774052	     -0.00483327	    -44.92161568	      1.88903948	     -9.38206166	     -3.98813534	     12.22468829	     12.68095105	     25.42394026	     -5.24565275	      3.20310012	    -21.87008786	      2.76533821	      0.33076426	     19.39041484	     23.98701965	    -33.54871656	     -2.29782864	      1.84100443
      3.20000000	     23.14925870	     -0.36141693	     -2.80379640	     -0.49113097	      0.94757851	     -0.00474064	    -45.02134258	      1.52492184	     -9.12238841	     -4.69939419	     12.06019784	     12.26603750	     25.70743129	     -5.32747636	      3.40427212	    -21.46864515	      2.16834244	     -0.34137320	     18.26085360	     24.09578264	    -33.55754424	     -2.63257435	      1.74389595
      3.20500000	     23.10886790	     -0.20046827	     -2.96906011	     -0.48441507	      0.94736537	     -0.00470468	    -44.94535683	      1.19308140	     -8.85344161	     -5.51089174	     11.70790351	     11.84802471	     27.72979179	     -5.26717963	      3.55796821	    -21.00469517	      1.49331610	     -1.23632404	     16.93557913	     25.71026983	    -33.46727146	     -2.92313817	      1.66038894
      3.21000000	     23.19735449	      0.00961718	     -3.15781076	     -0.47767188	      0.94738540	     -0.00459686	    -44.99732932	      0.81128913	     -8.56045683	     -6.34694905	     11.55798691	     11.36601399	     27.96565756	     -5.35406253	      3.76849800	    -20.62496614	      0.77177044	     -1.89854298	     15.79872515	     25.70380814	    -33.51089542	     -3.28960078	      1.55240585
      3.21500000	     23.12277355	      0.23479118	     -3.20717844	     -0.47092975	      0.94725647	     -0.00470168	    -44.79991099	      0.51202869	     -8.47357275	     -7.31080625	     11.03655235	     10.80886541	     30.27253515	     -5.20878880	      3.95847956	    -19.98094756	     -0.06645736	     -2.56521613	     14.38385718	     27.00871404	    -33.38840160	     -3.59200878	      1.29885863
      3.22000000	     23.11981545	      0.42022704	     -3.38214998	     -0.46418947	      0.94735736	     -0.00464120	    -44.64657021	      0.15963020	     -8.13140668	     -8.31839751	     10.64288125	     10.24694899	     30.70878883	     -5.19229259	      4.13116983	    -19.53698318	     -0.83988091	     -3.18494853	     13.16772164	     27.03470025	    -33.33741782	     -3.92140375	      1.22997304
      3.22500000	     23.10157677	      0.69389889	     -3.44167659	     -0.45739824	      0.94743083	     -0.00473488	    -44.42991024	     -0.19148951	     -8.08094782	     -9.41017372	      9.99201974	      9.63665436	     33.62873314	     -5.11204559	      4.37516371	    -18.98560592	     -1.71862909	     -3.73087734	     11.97160707	     27.95218108	    -33.27198488	     -4.28359797	      0.96234094
      3.23000000	     23.01794104	      0.87967338	     -3.54417010	     -0.45067539	      0.94757078	     -0.00476510	    -44.07557060	     -0.49291431	     -7.79368334	    -10.61752381	      9.47790956	      9.03521889	     34.16173816	     -4.96364245	      4.52080458	    -18.49172676	     -2.62404057	     -4.10031099	     10.90801487	     27.90449326	    -33.14389040	     -4.57782061	      0.83350584
      3.23500000	     23.02967491	      1.18485029	     -3.59415266	     -0.44384436	      0.94780363	     -0.00489395	    -43.79513385	     -0.87205574	     -7.80989287	    -11.87035238	      8.66843072	      8.34817159	     37.26067510	     -4.93689258	      4.80678114	    -17.96543387	     -3.50059976	     -4.40409221	      9.92552498	     28.07801092	    -33.10861064	     -4.96795125	      0.55315444
      3.24000000	     22.88868526	      1.36378682	     -3.66105386	     -0.43711975	      0.94798499	     -0.00499427	    -43.24812438	     -1.15342180	     -7.59700709	    -13.30859065	      8.01704947	      7.76425049	     37.92944871	     -4.72665991	      4.93779736	    -17.48029135	     -4.43852827	     -4.51895265	      9.13641706	     27.95956658	    -32.92218382	     -5.23413829	      0.42615086
      3.24500000	     22.90810710	      1.69795385	     -3.71879596	     -0.43022972	      0.94834714	     -0.00513678	    -42.87562339	     -1.57675855	     -7.67374046	    -14.71604118	      6.93772029	      6.98589699	     41.63539595	     -4.74710106	      5.26787379	    -17.03115900	     -5.27013903	     -4.59900925	      8.43464027	     27.53963382	    -32.88818815	     -5.65610831	      0.14794554
      3.25000000	     22.78539821	      1.89755795	     -3.73799163	     -0.42350715	      0.94863432	     -0.00532681	    -42.25497623	     -1.85937117	     -7.57895645	    -16.28921907	      5.98300824	      6.37812136	     42.83576602	     -4.56944226	      5.42692541	    -16.57814621	     -6.20670011	     -4.51601855	      7.83395657	     27.26231837	    -32.72724644	     -5.91722344	     -0.04039668
      3.25500000	     22.77363726	      2.24183771	     -3.83554884	     -0.41655946	      0.94905404	     -0.00546878	    -41.71687107	     -2.34603016	     -7.69872467	    -17.91415831	      4.76174831	      5.58172600	     46.38209690	     -4.64106356	      5.78984504	    -16.19770765	     -6.88814993	     -4.36791471	      7.47470333	     26.48481615	    -32.64854206	     -6.36224398	     -0.24411561
      3.26000000	     22.69692770	      2.51726171	     -3.90565829	     -0.40971192	      0.94946625	     -0.00565458	    -41.04096569	     -2.76117311	     -7.74115860	    -19.63677564	      3.50024354	      4.85062457	     48.66135528	     -4.63119907	      6.07068137	    -15.82216879	     -7.60058604	     -4.13159705	      7.13861839	     25.85675299	    -32.51425166	     -6.71978939	     -0.41581952
      3.26500000	     22.64216418	      2.81768858	     -3.98808321	     -0.40285473	      0.94992360	     -0.00585712	    -40.34190880	     -3.22615407	     -7.83345822	    -21.41445306	      2.12284245	      4.20001705	     51.06749367	     -4.68810942	      6.39378255	    -15.48314017	     -8.22708861	     -3.83491600	      6.88843755	     25.20164968	    -32.39985994	     -7.10459867	     -0.58146996
      3.27000000	     22.61191352	      3.13488182	     -4.11184307	     -0.39597838	      0.95043052	     -0.00602406	    -39.61744093	     -3.74957190	     -7.93517651	    -23.25117937	      0.67242717	      3.50340723	     53.49093240	     -4.80663924	      6.74862495	    -15.24616501	     -8.79202941	     -3.43808511	      6.72988098	     24.53000454	    -32.30339011	     -7.52340993	     -0.71649055
      3.27500000	     22.53777346	      3.42869005	     -4.20912926	     -0.38914332	      0.95094587	     -0.00627361	    -38.80073086	     -4.25101957	     -8.02941979	    -25.12439019	     -0.94955994	      2.87945912	     55.39402367	     -4.93970895	      7.09306475	    -14.91803268	     -9.21521081	     -3.11936121	      6.54464160	     23.97478659	    -32.16380117	     -7.89715614	     -0.84098670
      3.28000000	     22.48170572	      3.74436857	     -4.34741288	     -0.38231292	      0.95148060	     -0.00648147	    -37.95365902	     -4.81318361	     -8.12120999	    -27.04333281	     -2.61438076	      2.19865489	     57.29973129	     -5.11801080	      7.47229446	    -14.68716618	     -9.59039999	     -2.70753332	      6.42421382	     23.43097342	    -32.03589077	     -8.31011711	     -0.94157288
      3.28500000	     22.45564200	      4.07605293	     -4.51910612	     -0.37548688	      0.95207101	     -0.00667244	    -37.10699315	     -5.42537370	     -8.20483070	    -28.96615270	     -4.33023246	      1.53016990	     59.01214080	     -5.38338105	      7.88867306	    -14.50537135	     -9.84573825	     -2.30573052	      6.32653840	     22.90157877	    -31.93434735	     -8.75119837	     -1.01779868
